<?xml version="1.0" standalone="no"?>
<!DOCTYPE svg PUBLIC "-//W3C//DTD SVG 20010904//EN"
 "http://www.w3.org/TR/2001/REC-SVG-20010904/DTD/svg10.dtd">
<svg version="1.0" xmlns="http://www.w3.org/2000/svg"
 width="533.000000pt" height="468.000000pt" viewBox="0 0 533.000000 468.000000"
 preserveAspectRatio="xMidYMid meet">

<g transform="translate(0.000000,468.000000) scale(0.100000,-0.100000)"
fill="#000000" stroke="none">
<path d="M3230 4595 l0 -74 83 -3 82 -3 3 -162 2 -163 -85 0 -85 0 0 80 0 80
-645 0 -645 0 0 -80 0 -80 -160 0 -160 0 0 -80 0 -80 -80 0 -80 0 0 80 0 80
-160 0 -160 0 0 -80 0 -80 -80 0 -80 0 0 -80 0 -80 80 0 80 0 0 80 0 80 160 0
160 0 0 -80 0 -80 -80 0 -80 0 0 -80 0 -79 -82 -3 -83 -3 -3 -77 -3 -77 -77
-3 -77 -3 -3 -242 -2 -243 -80 0 -80 0 0 -480 0 -480 -80 0 -80 0 0 -80 0 -80
-160 0 -160 0 0 80 0 80 -80 0 -80 0 0 400 0 400 80 0 80 0 0 160 0 160 80 0
80 0 0 160 0 160 -80 0 -80 0 0 -160 0 -160 -80 0 -80 0 0 -160 0 -160 -80 0
-80 0 0 -400 0 -400 80 0 80 0 0 -80 0 -80 80 0 80 0 0 -325 0 -325 80 0 80 0
0 -80 0 -80 80 0 81 0 -3 -82 -3 -83 -77 -3 -78 -3 0 -159 0 -160 -80 0 -80 0
0 -160 0 -160 -80 0 -80 0 0 -160 0 -160 80 0 80 0 0 160 0 160 80 0 80 0 0
160 0 160 80 0 80 0 0 165 0 165 160 0 160 0 0 -80 0 -80 162 -2 163 -3 3 -83
3 -82 402 2 402 3 3 78 3 77 159 0 160 0 0 80 0 79 78 3 77 3 3 83 3 83 -83
-3 -83 -3 -3 -77 -3 -78 -159 0 -160 0 0 -80 0 -80 -400 0 -400 0 0 80 0 80
-165 0 -165 0 0 80 0 80 -160 0 -160 0 0 80 0 80 -80 0 -80 0 0 240 0 240 80
0 80 0 0 80 0 80 160 0 160 0 0 80 0 79 83 3 82 3 3 83 3 82 79 0 80 0 0 80 0
80 240 0 240 0 0 80 0 80 240 0 240 0 0 80 0 80 -160 0 -160 0 0 160 0 160
-80 0 -80 0 0 80 0 80 -80 0 -80 0 0 85 0 85 -240 0 -240 0 0 80 0 80 80 0 80
0 0 80 0 80 80 0 80 0 0 80 0 80 80 0 80 0 0 80 0 80 160 0 160 0 0 80 0 80
645 0 645 0 0 -80 0 -80 160 0 160 0 0 -80 0 -80 165 0 165 0 0 -80 0 -80 80
0 80 0 0 -165 0 -165 80 0 80 0 0 -160 0 -160 80 0 80 0 0 -240 0 -240 -80 0
-80 0 0 -80 0 -80 -160 0 -160 0 0 -80 0 -80 -80 0 -80 0 0 -127 c0 -71 -3
-178 -7 -240 l-6 -112 -76 -3 -76 -3 -3 -82 -3 -83 -79 0 -80 0 0 -80 0 -80
-240 0 -240 0 0 80 0 80 80 0 80 0 0 80 0 79 83 3 82 3 3 77 3 77 -83 3 -83 3
0 78 0 79 157 -1 157 -2 3 83 3 83 83 3 82 3 0 79 0 80 80 0 80 0 0 160 0 160
-80 0 -80 0 0 80 0 80 -85 0 -85 0 0 80 0 80 -240 0 -240 0 0 -80 0 -80 -80 0
-80 0 0 -80 0 -80 -80 0 -80 0 0 -160 0 -160 80 0 80 0 0 -80 0 -80 -160 0
-160 0 0 80 0 80 -85 0 -85 0 0 -80 0 -80 -80 0 -81 0 3 -82 3 -83 80 0 80 0
3 83 3 82 74 0 74 0 3 -82 3 -83 163 -3 162 -2 0 -80 0 -80 160 0 160 0 0 -80
0 -80 -80 0 -80 0 0 -80 0 -80 -80 0 -80 0 0 -160 0 -160 325 0 325 0 0 80 0
80 75 0 75 0 2 -242 3 -243 80 0 80 0 3 403 2 402 80 0 80 0 0 245 0 245 80 0
80 0 0 -165 0 -165 80 0 80 0 0 245 0 245 80 0 80 0 0 -80 0 -80 80 0 80 0 0
240 0 240 80 0 80 0 0 80 0 80 -80 0 -80 0 0 80 0 80 -80 0 -80 0 0 160 0 160
-80 0 -80 0 -2 163 -3 162 -77 3 -78 3 0 159 0 160 80 0 80 0 0 80 0 80 80 0
80 0 0 80 0 80 80 0 80 0 0 160 0 160 -80 0 -80 0 0 -80 0 -80 -80 0 -80 0 0
-80 0 -80 -80 0 -80 0 0 -80 0 -80 -80 0 -80 0 0 -80 0 -80 -85 0 -85 0 0 80
0 79 83 3 82 3 3 77 3 77 77 3 77 3 3 158 3 157 -161 0 -160 0 0 -160 0 -160
-85 0 -85 0 0 160 0 160 -160 0 -160 0 0 -75z m-1610 -1455 l0 -80 80 0 80 0
0 -160 0 -160 -80 0 -80 0 0 -80 0 -80 -245 0 -245 0 0 -160 0 -160 -80 0 -80
0 0 160 0 160 80 0 80 0 0 80 0 80 -80 0 -80 0 0 160 0 160 80 0 80 0 0 80 0
80 245 0 245 0 0 -80z m1770 -320 l0 -80 80 0 80 0 0 -160 0 -160 -80 0 -80 0
0 -80 0 -80 -240 0 -240 0 0 -80 0 -80 -80 0 -80 0 0 80 0 80 80 0 80 0 0 80
0 80 -80 0 -80 0 0 160 0 160 80 0 80 0 0 80 0 80 240 0 240 0 0 -80z"/>
<path d="M1300 2980 l0 -80 80 0 80 0 0 80 0 80 -80 0 -80 0 0 -80z"/>
<path d="M3070 2660 l0 -80 80 0 80 0 0 80 0 80 -80 0 -80 0 0 -80z"/>
<path d="M650 3790 l0 -79 -77 -3 -78 -3 -3 -77 -3 -78 81 0 80 0 0 80 0 80
160 0 160 0 0 80 0 80 -160 0 -160 0 0 -80z"/>
<path d="M4850 2495 l0 -245 75 0 75 0 2 -237 3 -238 83 -3 82 -3 0 -479 0
-479 -82 -3 -83 -3 -3 -77 -3 -78 -159 0 -160 0 0 -80 0 -80 -240 0 -240 0 0
-85 0 -85 160 0 160 0 0 -160 0 -160 80 0 80 0 0 245 0 245 159 0 c181 0 175
-3 171 88 -4 75 -8 72 80 72 l80 0 0 80 0 80 80 0 80 0 0 480 0 480 -80 0 -80
0 0 240 0 240 -80 0 c-44 0 -81 3 -81 8 -1 4 -3 113 -4 242 l-3 235 -76 3 -76
3 0 -246z"/>
<path d="M1460 2175 l0 -86 78 3 77 3 3 83 3 82 -81 0 -80 0 0 -85z"/>
</g>
</svg>
